<mxfile host="app.diagrams.net" modified="2023-04-08T14:31:00.644Z" agent="Mozilla/5.0 (Windows NT 10.0; Win64; x64) AppleWebKit/537.36 (KHTML, like Gecko) Chrome/111.0.0.0 Safari/537.36" etag="yIhfK708acEbA1pzPD81" version="21.1.5" type="github">
  <diagram name="Page-1" id="dahouQQ6QH--AWN1vkD8">
    <mxGraphModel dx="1050" dy="1641" grid="1" gridSize="10" guides="1" tooltips="1" connect="1" arrows="1" fold="1" page="1" pageScale="1" pageWidth="850" pageHeight="1100" math="0" shadow="0">
      <root>
        <mxCell id="0" />
        <mxCell id="1" parent="0" />
        <mxCell id="75fJrhYYslqEa0chBy9t-1" value="Activity diagram" style="shape=table;startSize=20;container=1;collapsible=1;childLayout=tableLayout;fixedRows=1;rowLines=0;fontStyle=1;align=center;resizeLast=1;movable=0;resizable=0;rotatable=0;deletable=0;editable=0;locked=1;connectable=0;" parent="1" vertex="1">
          <mxGeometry x="150" y="-430" width="770" height="1720" as="geometry" />
        </mxCell>
        <mxCell id="75fJrhYYslqEa0chBy9t-2" value="" style="shape=tableRow;horizontal=0;startSize=0;swimlaneHead=0;swimlaneBody=0;fillColor=none;collapsible=0;dropTarget=0;points=[[0,0.5],[1,0.5]];portConstraint=eastwest;top=0;left=0;right=0;bottom=0;" parent="75fJrhYYslqEa0chBy9t-1" vertex="1">
          <mxGeometry y="20" width="770" height="30" as="geometry" />
        </mxCell>
        <mxCell id="75fJrhYYslqEa0chBy9t-3" value="" style="shape=partialRectangle;connectable=0;fillColor=none;top=0;left=0;bottom=0;right=0;fontStyle=1;overflow=hidden;" parent="75fJrhYYslqEa0chBy9t-2" vertex="1">
          <mxGeometry width="440" height="30" as="geometry">
            <mxRectangle width="440" height="30" as="alternateBounds" />
          </mxGeometry>
        </mxCell>
        <mxCell id="75fJrhYYslqEa0chBy9t-4" value="" style="shape=partialRectangle;connectable=0;fillColor=none;top=0;left=0;bottom=0;right=0;align=left;spacingLeft=6;fontStyle=5;overflow=hidden;" parent="75fJrhYYslqEa0chBy9t-2" vertex="1">
          <mxGeometry x="440" width="330" height="30" as="geometry">
            <mxRectangle width="330" height="30" as="alternateBounds" />
          </mxGeometry>
        </mxCell>
        <mxCell id="75fJrhYYslqEa0chBy9t-5" value="" style="shape=tableRow;horizontal=0;startSize=0;swimlaneHead=0;swimlaneBody=0;fillColor=none;collapsible=0;dropTarget=0;points=[[0,0.5],[1,0.5]];portConstraint=eastwest;top=0;left=0;right=0;bottom=1;" parent="75fJrhYYslqEa0chBy9t-1" vertex="1">
          <mxGeometry y="50" width="770" height="20" as="geometry" />
        </mxCell>
        <mxCell id="75fJrhYYslqEa0chBy9t-6" value="" style="shape=partialRectangle;connectable=0;fillColor=none;top=0;left=0;bottom=0;right=0;fontStyle=1;overflow=hidden;" parent="75fJrhYYslqEa0chBy9t-5" vertex="1">
          <mxGeometry width="440" height="20" as="geometry">
            <mxRectangle width="440" height="20" as="alternateBounds" />
          </mxGeometry>
        </mxCell>
        <mxCell id="75fJrhYYslqEa0chBy9t-7" value="" style="shape=partialRectangle;connectable=0;fillColor=none;top=0;left=0;bottom=0;right=0;align=left;spacingLeft=6;fontStyle=5;overflow=hidden;" parent="75fJrhYYslqEa0chBy9t-5" vertex="1">
          <mxGeometry x="440" width="330" height="20" as="geometry">
            <mxRectangle width="330" height="20" as="alternateBounds" />
          </mxGeometry>
        </mxCell>
        <mxCell id="75fJrhYYslqEa0chBy9t-8" value="" style="shape=tableRow;horizontal=0;startSize=0;swimlaneHead=0;swimlaneBody=0;fillColor=none;collapsible=0;dropTarget=0;points=[[0,0.5],[1,0.5]];portConstraint=eastwest;top=0;left=0;right=0;bottom=0;" parent="75fJrhYYslqEa0chBy9t-1" vertex="1">
          <mxGeometry y="70" width="770" height="1650" as="geometry" />
        </mxCell>
        <mxCell id="75fJrhYYslqEa0chBy9t-9" value="" style="shape=partialRectangle;connectable=0;fillColor=none;top=0;left=0;bottom=0;right=0;editable=0;overflow=hidden;movable=0;resizable=0;rotatable=0;deletable=0;locked=1;" parent="75fJrhYYslqEa0chBy9t-8" vertex="1">
          <mxGeometry width="440" height="1650" as="geometry">
            <mxRectangle width="440" height="1650" as="alternateBounds" />
          </mxGeometry>
        </mxCell>
        <mxCell id="75fJrhYYslqEa0chBy9t-10" value="" style="shape=partialRectangle;connectable=0;fillColor=none;top=0;left=0;bottom=0;right=0;align=left;spacingLeft=6;overflow=hidden;movable=0;resizable=0;rotatable=0;deletable=0;editable=0;locked=1;" parent="75fJrhYYslqEa0chBy9t-8" vertex="1">
          <mxGeometry x="440" width="330" height="1650" as="geometry">
            <mxRectangle width="330" height="1650" as="alternateBounds" />
          </mxGeometry>
        </mxCell>
        <mxCell id="75fJrhYYslqEa0chBy9t-11" value="Đăng nhập tài khoản" style="rounded=1;whiteSpace=wrap;html=1;fillColor=#FFFFFF;" parent="1" vertex="1">
          <mxGeometry x="295" y="-70" width="120" height="60" as="geometry" />
        </mxCell>
        <mxCell id="75fJrhYYslqEa0chBy9t-12" value="" style="ellipse;html=1;shape=endState;fillColor=#000000;strokeColor=#ff0000;" parent="1" vertex="1">
          <mxGeometry x="717.5" y="1190" width="30" height="30" as="geometry" />
        </mxCell>
        <mxCell id="75fJrhYYslqEa0chBy9t-13" value="" style="rhombus;whiteSpace=wrap;html=1;" parent="1" vertex="1">
          <mxGeometry x="747.5" y="25" width="25" height="35" as="geometry" />
        </mxCell>
        <mxCell id="75fJrhYYslqEa0chBy9t-14" value="&lt;font style=&quot;font-size: 12px;&quot;&gt;Kiểm tra thông tin&lt;/font&gt;" style="rounded=1;whiteSpace=wrap;html=1;fontSize=21;fillColor=#FFFFFF;" parent="1" vertex="1">
          <mxGeometry x="700" y="-70" width="120" height="60" as="geometry" />
        </mxCell>
        <mxCell id="75fJrhYYslqEa0chBy9t-15" value="&lt;font style=&quot;font-size: 21px;&quot;&gt;&lt;font style=&quot;font-size: 21px;&quot;&gt;Back officers&lt;/font&gt;&lt;/font&gt;" style="text;html=1;strokeColor=none;fillColor=none;align=center;verticalAlign=middle;whiteSpace=wrap;rounded=0;fontSize=21;" parent="1" vertex="1">
          <mxGeometry x="295" y="-340" width="210" height="30" as="geometry" />
        </mxCell>
        <mxCell id="75fJrhYYslqEa0chBy9t-16" value="" style="ellipse;html=1;shape=startState;fillColor=#000000;strokeColor=#ff0000;fontSize=21;" parent="1" vertex="1">
          <mxGeometry x="340" y="-290" width="30" height="30" as="geometry" />
        </mxCell>
        <mxCell id="75fJrhYYslqEa0chBy9t-17" value="" style="edgeStyle=orthogonalEdgeStyle;html=1;verticalAlign=bottom;endArrow=open;endSize=8;strokeColor=#000000;rounded=0;fontSize=21;entryX=0.5;entryY=0;entryDx=0;entryDy=0;exitX=0.5;exitY=1;exitDx=0;exitDy=0;" parent="1" source="75fJrhYYslqEa0chBy9t-16" target="75fJrhYYslqEa0chBy9t-19" edge="1">
          <mxGeometry relative="1" as="geometry">
            <mxPoint x="355" y="-150" as="targetPoint" />
            <Array as="points" />
          </mxGeometry>
        </mxCell>
        <mxCell id="75fJrhYYslqEa0chBy9t-18" value="" style="endArrow=classic;html=1;rounded=0;entryX=0;entryY=0.5;entryDx=0;entryDy=0;" parent="1" target="75fJrhYYslqEa0chBy9t-14" edge="1">
          <mxGeometry width="50" height="50" relative="1" as="geometry">
            <mxPoint x="420" y="-40" as="sourcePoint" />
            <mxPoint x="470" y="-100" as="targetPoint" />
          </mxGeometry>
        </mxCell>
        <mxCell id="75fJrhYYslqEa0chBy9t-19" value="Truy cập vào web" style="rounded=1;whiteSpace=wrap;html=1;fillColor=#FFFFFF;" parent="1" vertex="1">
          <mxGeometry x="295" y="-240" width="120" height="60" as="geometry" />
        </mxCell>
        <mxCell id="75fJrhYYslqEa0chBy9t-20" value="System" style="text;html=1;strokeColor=none;fillColor=none;align=center;verticalAlign=middle;whiteSpace=wrap;rounded=0;fontSize=21;" parent="1" vertex="1">
          <mxGeometry x="620" y="-380" width="240" height="110" as="geometry" />
        </mxCell>
        <mxCell id="75fJrhYYslqEa0chBy9t-21" value="Thông báo đăng nhập thành công" style="rounded=1;whiteSpace=wrap;html=1;fontSize=12;fillColor=#FFFFFF;" parent="1" vertex="1">
          <mxGeometry x="700" y="120" width="120" height="60" as="geometry" />
        </mxCell>
        <mxCell id="75fJrhYYslqEa0chBy9t-22" value="Thêm công việc" style="rounded=1;whiteSpace=wrap;html=1;fontSize=12;fillColor=#FFFFFF;" parent="1" vertex="1">
          <mxGeometry x="350" y="120" width="120" height="60" as="geometry" />
        </mxCell>
        <mxCell id="75fJrhYYslqEa0chBy9t-23" style="edgeStyle=orthogonalEdgeStyle;rounded=0;orthogonalLoop=1;jettySize=auto;html=1;exitX=0.5;exitY=1;exitDx=0;exitDy=0;entryX=0.5;entryY=0;entryDx=0;entryDy=0;" parent="1" source="75fJrhYYslqEa0chBy9t-24" target="75fJrhYYslqEa0chBy9t-61" edge="1">
          <mxGeometry relative="1" as="geometry" />
        </mxCell>
        <mxCell id="75fJrhYYslqEa0chBy9t-24" value="Chọn ID nhân viên&lt;br&gt;" style="rounded=1;whiteSpace=wrap;html=1;fontSize=12;fillColor=#FFFFFF;" parent="1" vertex="1">
          <mxGeometry x="240" y="370" width="120" height="60" as="geometry" />
        </mxCell>
        <mxCell id="75fJrhYYslqEa0chBy9t-25" value="Chọn vai trò của mình" style="rounded=1;whiteSpace=wrap;html=1;fontSize=12;fillColor=#FFFFFF;" parent="1" vertex="1">
          <mxGeometry x="295" y="-155" width="120" height="60" as="geometry" />
        </mxCell>
        <mxCell id="75fJrhYYslqEa0chBy9t-26" style="edgeStyle=orthogonalEdgeStyle;rounded=0;orthogonalLoop=1;jettySize=auto;html=1;exitX=0.5;exitY=1;exitDx=0;exitDy=0;entryX=0.5;entryY=0;entryDx=0;entryDy=0;" parent="1" source="75fJrhYYslqEa0chBy9t-27" target="75fJrhYYslqEa0chBy9t-69" edge="1">
          <mxGeometry relative="1" as="geometry" />
        </mxCell>
        <mxCell id="75fJrhYYslqEa0chBy9t-27" value="Chọn ID nhân viên" style="rounded=1;whiteSpace=wrap;html=1;fontSize=12;fillColor=#FFFFFF;" parent="1" vertex="1">
          <mxGeometry x="440" y="370" width="120" height="60" as="geometry" />
        </mxCell>
        <mxCell id="75fJrhYYslqEa0chBy9t-28" style="edgeStyle=orthogonalEdgeStyle;rounded=0;orthogonalLoop=1;jettySize=auto;html=1;exitX=0;exitY=0.5;exitDx=0;exitDy=0;entryX=1;entryY=0.5;entryDx=0;entryDy=0;" parent="1" source="75fJrhYYslqEa0chBy9t-29" target="75fJrhYYslqEa0chBy9t-65" edge="1">
          <mxGeometry relative="1" as="geometry" />
        </mxCell>
        <mxCell id="75fJrhYYslqEa0chBy9t-29" value="Thiết lập lộ trình" style="rounded=1;whiteSpace=wrap;html=1;" parent="1" vertex="1">
          <mxGeometry x="680" y="680" width="120" height="60" as="geometry" />
        </mxCell>
        <mxCell id="75fJrhYYslqEa0chBy9t-30" value="Tính toán đường đi tối ưu trong ngày" style="rounded=1;whiteSpace=wrap;html=1;fontSize=12;fillColor=#FFFFFF;" parent="1" vertex="1">
          <mxGeometry x="680" y="580" width="120" height="60" as="geometry" />
        </mxCell>
        <mxCell id="75fJrhYYslqEa0chBy9t-31" value="" style="endArrow=classic;html=1;rounded=0;exitX=0.5;exitY=1;exitDx=0;exitDy=0;entryX=0.5;entryY=0;entryDx=0;entryDy=0;" parent="1" source="75fJrhYYslqEa0chBy9t-13" target="75fJrhYYslqEa0chBy9t-21" edge="1">
          <mxGeometry width="50" height="50" relative="1" as="geometry">
            <mxPoint x="660" y="130" as="sourcePoint" />
            <mxPoint x="710" y="80" as="targetPoint" />
          </mxGeometry>
        </mxCell>
        <mxCell id="75fJrhYYslqEa0chBy9t-32" value="" style="endArrow=classic;html=1;rounded=0;exitX=0.5;exitY=1;exitDx=0;exitDy=0;entryX=0.5;entryY=0;entryDx=0;entryDy=0;" parent="1" source="75fJrhYYslqEa0chBy9t-14" target="75fJrhYYslqEa0chBy9t-13" edge="1">
          <mxGeometry width="50" height="50" relative="1" as="geometry">
            <mxPoint x="810" y="90" as="sourcePoint" />
            <mxPoint x="860" y="40" as="targetPoint" />
          </mxGeometry>
        </mxCell>
        <mxCell id="75fJrhYYslqEa0chBy9t-33" value="" style="endArrow=classic;html=1;rounded=0;exitX=0;exitY=0.5;exitDx=0;exitDy=0;entryX=0.5;entryY=1;entryDx=0;entryDy=0;" parent="1" source="75fJrhYYslqEa0chBy9t-13" target="75fJrhYYslqEa0chBy9t-11" edge="1">
          <mxGeometry width="50" height="50" relative="1" as="geometry">
            <mxPoint x="460" y="60" as="sourcePoint" />
            <mxPoint x="510" y="10" as="targetPoint" />
            <Array as="points">
              <mxPoint x="355" y="43" />
            </Array>
          </mxGeometry>
        </mxCell>
        <mxCell id="75fJrhYYslqEa0chBy9t-34" value="Thông tin đăng nhập sai" style="text;html=1;strokeColor=none;fillColor=none;align=center;verticalAlign=middle;whiteSpace=wrap;rounded=0;" parent="1" vertex="1">
          <mxGeometry x="590" y="10" width="95" height="30" as="geometry" />
        </mxCell>
        <mxCell id="75fJrhYYslqEa0chBy9t-35" value="" style="endArrow=classic;html=1;rounded=0;fontSize=12;exitX=0.5;exitY=1;exitDx=0;exitDy=0;entryX=0.5;entryY=0;entryDx=0;entryDy=0;" parent="1" source="75fJrhYYslqEa0chBy9t-19" target="75fJrhYYslqEa0chBy9t-25" edge="1">
          <mxGeometry width="50" height="50" relative="1" as="geometry">
            <mxPoint x="520" y="-40" as="sourcePoint" />
            <mxPoint x="570" y="-90" as="targetPoint" />
          </mxGeometry>
        </mxCell>
        <mxCell id="75fJrhYYslqEa0chBy9t-36" value="" style="endArrow=classic;html=1;rounded=0;strokeColor=#000000;fontSize=21;fontColor=#000000;exitX=0.5;exitY=1;exitDx=0;exitDy=0;entryX=0.5;entryY=0;entryDx=0;entryDy=0;" parent="1" source="75fJrhYYslqEa0chBy9t-25" target="75fJrhYYslqEa0chBy9t-11" edge="1">
          <mxGeometry width="50" height="50" relative="1" as="geometry">
            <mxPoint x="430" y="-90" as="sourcePoint" />
            <mxPoint x="480" y="-140" as="targetPoint" />
          </mxGeometry>
        </mxCell>
        <mxCell id="75fJrhYYslqEa0chBy9t-37" value="Thông tin đăng nhập hợp lệ" style="text;html=1;strokeColor=none;fillColor=none;align=center;verticalAlign=middle;whiteSpace=wrap;rounded=0;" parent="1" vertex="1">
          <mxGeometry x="755" y="70" width="95" height="30" as="geometry" />
        </mxCell>
        <mxCell id="75fJrhYYslqEa0chBy9t-38" value="" style="endArrow=classic;html=1;rounded=0;fontSize=12;entryX=1;entryY=0.5;entryDx=0;entryDy=0;exitX=0;exitY=0.5;exitDx=0;exitDy=0;" parent="1" source="75fJrhYYslqEa0chBy9t-21" target="75fJrhYYslqEa0chBy9t-22" edge="1">
          <mxGeometry width="50" height="50" relative="1" as="geometry">
            <mxPoint x="520" y="360" as="sourcePoint" />
            <mxPoint x="570" y="310" as="targetPoint" />
          </mxGeometry>
        </mxCell>
        <mxCell id="75fJrhYYslqEa0chBy9t-39" value="" style="endArrow=classic;html=1;rounded=0;fontSize=12;exitX=0.5;exitY=1;exitDx=0;exitDy=0;entryX=0.5;entryY=0;entryDx=0;entryDy=0;" parent="1" source="75fJrhYYslqEa0chBy9t-22" target="75fJrhYYslqEa0chBy9t-40" edge="1">
          <mxGeometry width="50" height="50" relative="1" as="geometry">
            <mxPoint x="520" y="360" as="sourcePoint" />
            <mxPoint x="400.17734426956326" y="230.17734426956326" as="targetPoint" />
          </mxGeometry>
        </mxCell>
        <mxCell id="75fJrhYYslqEa0chBy9t-40" value="Chọn loại nhân viên" style="rounded=1;whiteSpace=wrap;html=1;fontSize=12;fillColor=#FFFFFF;" parent="1" vertex="1">
          <mxGeometry x="350" y="200" width="120" height="60" as="geometry" />
        </mxCell>
        <mxCell id="75fJrhYYslqEa0chBy9t-41" value="" style="rhombus;whiteSpace=wrap;html=1;fontSize=12;fillColor=#FFFFFF;" parent="1" vertex="1">
          <mxGeometry x="395" y="310" width="30" height="40" as="geometry" />
        </mxCell>
        <mxCell id="75fJrhYYslqEa0chBy9t-42" value="" style="endArrow=classic;html=1;rounded=0;fontSize=12;entryX=0.5;entryY=0;entryDx=0;entryDy=0;exitX=0;exitY=0.5;exitDx=0;exitDy=0;" parent="1" source="75fJrhYYslqEa0chBy9t-41" target="75fJrhYYslqEa0chBy9t-24" edge="1">
          <mxGeometry width="50" height="50" relative="1" as="geometry">
            <mxPoint x="530" y="440" as="sourcePoint" />
            <mxPoint x="580" y="390" as="targetPoint" />
            <Array as="points">
              <mxPoint x="300" y="330" />
            </Array>
          </mxGeometry>
        </mxCell>
        <mxCell id="75fJrhYYslqEa0chBy9t-43" value="" style="endArrow=classic;html=1;rounded=0;fontSize=12;exitX=1;exitY=0.5;exitDx=0;exitDy=0;entryX=0.5;entryY=0;entryDx=0;entryDy=0;" parent="1" source="75fJrhYYslqEa0chBy9t-41" target="75fJrhYYslqEa0chBy9t-27" edge="1">
          <mxGeometry width="50" height="50" relative="1" as="geometry">
            <mxPoint x="530" y="440" as="sourcePoint" />
            <mxPoint x="580" y="390" as="targetPoint" />
            <Array as="points">
              <mxPoint x="500" y="330" />
            </Array>
          </mxGeometry>
        </mxCell>
        <mxCell id="75fJrhYYslqEa0chBy9t-44" value="Janitors" style="text;html=1;strokeColor=none;fillColor=none;align=center;verticalAlign=middle;whiteSpace=wrap;rounded=0;fontSize=12;" parent="1" vertex="1">
          <mxGeometry x="310" y="300" width="60" height="30" as="geometry" />
        </mxCell>
        <mxCell id="75fJrhYYslqEa0chBy9t-45" value="Collectors" style="text;html=1;strokeColor=none;fillColor=none;align=center;verticalAlign=middle;whiteSpace=wrap;rounded=0;fontSize=12;" parent="1" vertex="1">
          <mxGeometry x="445" y="300" width="60" height="30" as="geometry" />
        </mxCell>
        <mxCell id="75fJrhYYslqEa0chBy9t-46" value="" style="endArrow=classic;html=1;rounded=0;fontSize=12;exitX=0.5;exitY=1;exitDx=0;exitDy=0;entryX=0.5;entryY=0;entryDx=0;entryDy=0;" parent="1" source="75fJrhYYslqEa0chBy9t-40" target="75fJrhYYslqEa0chBy9t-41" edge="1">
          <mxGeometry width="50" height="50" relative="1" as="geometry">
            <mxPoint x="590" y="470" as="sourcePoint" />
            <mxPoint x="640" y="420" as="targetPoint" />
          </mxGeometry>
        </mxCell>
        <mxCell id="75fJrhYYslqEa0chBy9t-47" value="" style="endArrow=classic;html=1;rounded=0;fontSize=12;exitX=0.5;exitY=1;exitDx=0;exitDy=0;entryX=0.5;entryY=0;entryDx=0;entryDy=0;" parent="1" source="75fJrhYYslqEa0chBy9t-30" target="75fJrhYYslqEa0chBy9t-29" edge="1">
          <mxGeometry width="50" height="50" relative="1" as="geometry">
            <mxPoint x="570" y="510" as="sourcePoint" />
            <mxPoint x="620" y="460" as="targetPoint" />
          </mxGeometry>
        </mxCell>
        <mxCell id="75fJrhYYslqEa0chBy9t-48" value="Gửi các thông tin đã cung cấp" style="rounded=1;whiteSpace=wrap;html=1;fontSize=12;fillColor=#FFFFFF;" parent="1" vertex="1">
          <mxGeometry x="340" y="890" width="120" height="60" as="geometry" />
        </mxCell>
        <mxCell id="75fJrhYYslqEa0chBy9t-49" value="" style="endArrow=classic;html=1;rounded=0;strokeColor=#000000;strokeWidth=1;fontSize=21;fontColor=#000000;exitX=0.5;exitY=1;exitDx=0;exitDy=0;entryX=0.5;entryY=0;entryDx=0;entryDy=0;" parent="1" source="75fJrhYYslqEa0chBy9t-22" target="75fJrhYYslqEa0chBy9t-40" edge="1">
          <mxGeometry width="50" height="50" relative="1" as="geometry">
            <mxPoint x="430" y="330" as="sourcePoint" />
            <mxPoint x="480" y="280" as="targetPoint" />
          </mxGeometry>
        </mxCell>
        <mxCell id="75fJrhYYslqEa0chBy9t-50" value="Hệ thống hiển thị lại thông tin công việc một cách tổng quát" style="rounded=1;whiteSpace=wrap;html=1;fontSize=12;fillColor=#FFFFFF;" parent="1" vertex="1">
          <mxGeometry x="670" y="890" width="125" height="70" as="geometry" />
        </mxCell>
        <mxCell id="75fJrhYYslqEa0chBy9t-51" value="" style="endArrow=classic;html=1;rounded=0;fontSize=12;exitX=1;exitY=0.5;exitDx=0;exitDy=0;entryX=-0.014;entryY=0.409;entryDx=0;entryDy=0;entryPerimeter=0;" parent="1" source="75fJrhYYslqEa0chBy9t-48" target="75fJrhYYslqEa0chBy9t-50" edge="1">
          <mxGeometry width="50" height="50" relative="1" as="geometry">
            <mxPoint x="610" y="670" as="sourcePoint" />
            <mxPoint x="660" y="620" as="targetPoint" />
          </mxGeometry>
        </mxCell>
        <mxCell id="75fJrhYYslqEa0chBy9t-52" value="" style="rhombus;whiteSpace=wrap;html=1;fontSize=12;fillColor=#FFFFFF;" parent="1" vertex="1">
          <mxGeometry x="381.25" y="990" width="37.5" height="60" as="geometry" />
        </mxCell>
        <mxCell id="75fJrhYYslqEa0chBy9t-53" value="Xác nhận" style="text;html=1;strokeColor=none;fillColor=none;align=center;verticalAlign=middle;whiteSpace=wrap;rounded=0;fontSize=12;" parent="1" vertex="1">
          <mxGeometry x="400" y="970" width="60" height="30" as="geometry" />
        </mxCell>
        <mxCell id="75fJrhYYslqEa0chBy9t-54" value="" style="endArrow=classic;html=1;rounded=0;fontSize=12;exitX=0.475;exitY=1.012;exitDx=0;exitDy=0;entryX=1;entryY=0.5;entryDx=0;entryDy=0;exitPerimeter=0;" parent="1" source="75fJrhYYslqEa0chBy9t-50" target="75fJrhYYslqEa0chBy9t-52" edge="1">
          <mxGeometry width="50" height="50" relative="1" as="geometry">
            <mxPoint x="570" y="690" as="sourcePoint" />
            <mxPoint x="620" y="640" as="targetPoint" />
            <Array as="points">
              <mxPoint x="730" y="1020" />
            </Array>
          </mxGeometry>
        </mxCell>
        <mxCell id="75fJrhYYslqEa0chBy9t-55" value="" style="endArrow=classic;html=1;rounded=0;fontSize=12;exitX=0;exitY=0.5;exitDx=0;exitDy=0;entryX=0;entryY=0.5;entryDx=0;entryDy=0;" parent="1" source="75fJrhYYslqEa0chBy9t-52" target="75fJrhYYslqEa0chBy9t-40" edge="1">
          <mxGeometry width="50" height="50" relative="1" as="geometry">
            <mxPoint x="570" y="890" as="sourcePoint" />
            <mxPoint x="620" y="840" as="targetPoint" />
            <Array as="points">
              <mxPoint x="190" y="1020" />
              <mxPoint x="190" y="230" />
            </Array>
          </mxGeometry>
        </mxCell>
        <mxCell id="75fJrhYYslqEa0chBy9t-56" value="Chỉnh sửa lại công việc vừa thêm" style="text;html=1;strokeColor=none;fillColor=none;align=center;verticalAlign=middle;whiteSpace=wrap;rounded=0;fontSize=12;" parent="1" vertex="1">
          <mxGeometry x="225" y="1030" width="125" height="30" as="geometry" />
        </mxCell>
        <mxCell id="75fJrhYYslqEa0chBy9t-57" value="Hệ thông lưu lại dữ liệu đã thiết lập" style="rounded=1;whiteSpace=wrap;html=1;fontSize=12;fillColor=#FFFFFF;" parent="1" vertex="1">
          <mxGeometry x="670" y="1090" width="125" height="70" as="geometry" />
        </mxCell>
        <mxCell id="75fJrhYYslqEa0chBy9t-58" value="" style="endArrow=classic;html=1;rounded=0;fontSize=12;exitX=0.5;exitY=1;exitDx=0;exitDy=0;entryX=-0.003;entryY=0.447;entryDx=0;entryDy=0;entryPerimeter=0;" parent="1" source="75fJrhYYslqEa0chBy9t-52" target="75fJrhYYslqEa0chBy9t-57" edge="1">
          <mxGeometry width="50" height="50" relative="1" as="geometry">
            <mxPoint x="570" y="660" as="sourcePoint" />
            <mxPoint x="620" y="610" as="targetPoint" />
            <Array as="points">
              <mxPoint x="400" y="1120" />
            </Array>
          </mxGeometry>
        </mxCell>
        <mxCell id="75fJrhYYslqEa0chBy9t-59" value="" style="endArrow=classic;html=1;rounded=0;fontSize=12;entryX=0.5;entryY=0;entryDx=0;entryDy=0;exitX=0.5;exitY=1;exitDx=0;exitDy=0;" parent="1" source="75fJrhYYslqEa0chBy9t-57" target="75fJrhYYslqEa0chBy9t-12" edge="1">
          <mxGeometry width="50" height="50" relative="1" as="geometry">
            <mxPoint x="570" y="860" as="sourcePoint" />
            <mxPoint x="620" y="810" as="targetPoint" />
          </mxGeometry>
        </mxCell>
        <mxCell id="75fJrhYYslqEa0chBy9t-60" style="edgeStyle=orthogonalEdgeStyle;rounded=0;orthogonalLoop=1;jettySize=auto;html=1;exitX=0.5;exitY=1;exitDx=0;exitDy=0;entryX=0.5;entryY=0;entryDx=0;entryDy=0;" parent="1" source="75fJrhYYslqEa0chBy9t-61" target="75fJrhYYslqEa0chBy9t-63" edge="1">
          <mxGeometry relative="1" as="geometry" />
        </mxCell>
        <mxCell id="75fJrhYYslqEa0chBy9t-61" value="Chọn thời gian làm việc" style="rounded=1;whiteSpace=wrap;html=1;fontSize=12;fillColor=#FFFFFF;" parent="1" vertex="1">
          <mxGeometry x="240" y="470" width="120" height="60" as="geometry" />
        </mxCell>
        <mxCell id="75fJrhYYslqEa0chBy9t-62" style="edgeStyle=orthogonalEdgeStyle;rounded=0;orthogonalLoop=1;jettySize=auto;html=1;exitX=0.5;exitY=1;exitDx=0;exitDy=0;" parent="1" source="75fJrhYYslqEa0chBy9t-63" target="75fJrhYYslqEa0chBy9t-74" edge="1">
          <mxGeometry relative="1" as="geometry" />
        </mxCell>
        <mxCell id="75fJrhYYslqEa0chBy9t-63" value="Chọn ca làm việc" style="rounded=1;whiteSpace=wrap;html=1;fontSize=12;fillColor=#FFFFFF;" parent="1" vertex="1">
          <mxGeometry x="240" y="580" width="120" height="60" as="geometry" />
        </mxCell>
        <mxCell id="75fJrhYYslqEa0chBy9t-64" style="edgeStyle=orthogonalEdgeStyle;rounded=0;orthogonalLoop=1;jettySize=auto;html=1;exitX=0.5;exitY=1;exitDx=0;exitDy=0;entryX=0.5;entryY=0;entryDx=0;entryDy=0;" parent="1" source="75fJrhYYslqEa0chBy9t-65" target="75fJrhYYslqEa0chBy9t-67" edge="1">
          <mxGeometry relative="1" as="geometry" />
        </mxCell>
        <mxCell id="75fJrhYYslqEa0chBy9t-65" value="Chọn tuyến đường" style="rounded=1;whiteSpace=wrap;html=1;fontSize=12;fillColor=#FFFFFF;" parent="1" vertex="1">
          <mxGeometry x="440" y="680" width="120" height="60" as="geometry" />
        </mxCell>
        <mxCell id="75fJrhYYslqEa0chBy9t-66" style="edgeStyle=orthogonalEdgeStyle;rounded=0;orthogonalLoop=1;jettySize=auto;html=1;exitX=0.5;exitY=1;exitDx=0;exitDy=0;" parent="1" source="75fJrhYYslqEa0chBy9t-67" edge="1">
          <mxGeometry relative="1" as="geometry">
            <mxPoint x="400" y="890" as="targetPoint" />
          </mxGeometry>
        </mxCell>
        <mxCell id="75fJrhYYslqEa0chBy9t-67" value="Chọn ID vehicle" style="rounded=1;whiteSpace=wrap;html=1;fontSize=12;fillColor=#FFFFFF;" parent="1" vertex="1">
          <mxGeometry x="440" y="780" width="120" height="60" as="geometry" />
        </mxCell>
        <mxCell id="75fJrhYYslqEa0chBy9t-68" style="edgeStyle=orthogonalEdgeStyle;rounded=0;orthogonalLoop=1;jettySize=auto;html=1;exitX=0.5;exitY=1;exitDx=0;exitDy=0;" parent="1" source="75fJrhYYslqEa0chBy9t-69" target="75fJrhYYslqEa0chBy9t-72" edge="1">
          <mxGeometry relative="1" as="geometry" />
        </mxCell>
        <mxCell id="75fJrhYYslqEa0chBy9t-69" value="Chọn thời gian làm việc" style="rounded=1;whiteSpace=wrap;html=1;fontSize=12;fillColor=#FFFFFF;" parent="1" vertex="1">
          <mxGeometry x="440" y="470" width="120" height="60" as="geometry" />
        </mxCell>
        <mxCell id="75fJrhYYslqEa0chBy9t-70" style="edgeStyle=orthogonalEdgeStyle;rounded=0;orthogonalLoop=1;jettySize=auto;html=1;exitX=1;exitY=0.5;exitDx=0;exitDy=0;entryX=0;entryY=0.5;entryDx=0;entryDy=0;" parent="1" source="75fJrhYYslqEa0chBy9t-72" target="75fJrhYYslqEa0chBy9t-30" edge="1">
          <mxGeometry relative="1" as="geometry" />
        </mxCell>
        <mxCell id="75fJrhYYslqEa0chBy9t-71" style="edgeStyle=orthogonalEdgeStyle;rounded=0;orthogonalLoop=1;jettySize=auto;html=1;exitX=0.5;exitY=1;exitDx=0;exitDy=0;entryX=0.5;entryY=0;entryDx=0;entryDy=0;" parent="1" source="75fJrhYYslqEa0chBy9t-72" target="75fJrhYYslqEa0chBy9t-65" edge="1">
          <mxGeometry relative="1" as="geometry" />
        </mxCell>
        <mxCell id="75fJrhYYslqEa0chBy9t-72" value="Chọn ca làm việc" style="rounded=1;whiteSpace=wrap;html=1;fontSize=12;fillColor=#FFFFFF;" parent="1" vertex="1">
          <mxGeometry x="440" y="580" width="120" height="60" as="geometry" />
        </mxCell>
        <mxCell id="75fJrhYYslqEa0chBy9t-73" style="edgeStyle=orthogonalEdgeStyle;rounded=0;orthogonalLoop=1;jettySize=auto;html=1;exitX=0.5;exitY=1;exitDx=0;exitDy=0;entryX=0.5;entryY=0;entryDx=0;entryDy=0;" parent="1" source="75fJrhYYslqEa0chBy9t-74" target="75fJrhYYslqEa0chBy9t-76" edge="1">
          <mxGeometry relative="1" as="geometry" />
        </mxCell>
        <mxCell id="75fJrhYYslqEa0chBy9t-74" value="Chọn khu vực làm việc" style="rounded=1;whiteSpace=wrap;html=1;fontSize=12;fillColor=#FFFFFF;" parent="1" vertex="1">
          <mxGeometry x="240" y="680" width="120" height="60" as="geometry" />
        </mxCell>
        <mxCell id="75fJrhYYslqEa0chBy9t-75" style="edgeStyle=orthogonalEdgeStyle;rounded=0;orthogonalLoop=1;jettySize=auto;html=1;exitX=0.5;exitY=1;exitDx=0;exitDy=0;" parent="1" source="75fJrhYYslqEa0chBy9t-76" target="75fJrhYYslqEa0chBy9t-48" edge="1">
          <mxGeometry relative="1" as="geometry" />
        </mxCell>
        <mxCell id="75fJrhYYslqEa0chBy9t-76" value="Chọn nơi lấy troller" style="rounded=1;whiteSpace=wrap;html=1;fontSize=12;fillColor=#FFFFFF;" parent="1" vertex="1">
          <mxGeometry x="240" y="780" width="120" height="60" as="geometry" />
        </mxCell>
      </root>
    </mxGraphModel>
  </diagram>
</mxfile>
